<!-- Generator: Adobe Illustrator 25.0.1, SVG Export Plug-In  -->
<svg version="1.1" xmlns="http://www.w3.org/2000/svg" xmlns:xlink="http://www.w3.org/1999/xlink" x="0px" y="0px" width="292.6px"
	 height="290.6px" viewBox="0 0 292.6 290.6" style="overflow:visible;enable-background:new 0 0 292.6 290.6;"
	 xml:space="preserve">
<style type="text/css">
	.st0{fill:#00729C;}
	.st1{fill:url(#SVGID_1_);}
	.st2{fill:url(#SVGID_2_);}
	.st3{fill:url(#SVGID_3_);}
	.st4{fill:url(#SVGID_4_);}
</style>
<defs>
</defs>
<g>
	<g>
		<g>
			<path class="st0" d="M142.9,70.4L142.9,70.4c-3,0-5.8,1.3-7.7,3.6L94,121.8c-4.1,4.8-11.5,4.7-15.5-0.1l-50-59
				c-1.9-2.3-4.3-3.6-10.1-3.6h-8.2C4.6,59.1,0,63.7,0,69.3v150.2c0,5.6,4.6,10.2,10.2,10.2h3.4c5.6,0,10.2-4.6,10.2-10.2V118.8
				c0-9.5,11.8-13.8,18-6.6l36.6,43.2c4.1,4.8,11.5,4.8,15.6,0l47.8-56.5l0-0.2l9.1-11.9C156.1,80.1,151.3,70.4,142.9,70.4z"/>
		</g>
		<g>
			<path class="st0" d="M178.6,88.5c8.4-9.9,12.1-19.4,12.1-27.2c0-16.8-15.9-28-30.4-28c-22,0-29.1,14.2-33.1,23.5
				c-3.1,6.9-7.5,4.9-8.7,4.8v0c-6.6-1.3-10.4-5.8-8.7-11.5c5.8-19.7,23-35.3,48.6-35.3h2.7c31,0,51.7,21.3,51.7,45.5
				c0,11.2-4.6,23.7-14,34.9l-41.4,48.5c-5,5.9-0.8,14.9,6.9,14.9h37.6c5,0,9,4.1,9,9v0c0,5-4.1,9-9,9h-76.6c-7.6,0-11.8-8.9-7-14.8
				L178.6,88.5z"/>
		</g>
		<g>
			<path class="st0" d="M292.5,188.2c0,24-19.1,45.4-43.4,45.4h-1.9c-19.2,0-37.3-14.1-41.9-31.1c-1.2-4.3,1.5-8.8,5.8-10l1.2-0.3
				c4.2-1.1,8.6,1.2,10,5.3c4.6,13.5,15.3,19.9,25.8,19.9c11.4,0,23.5-8,27-22.5c0.1-0.4,0.2-0.7,0.2-1.1c0.2-1.7,0.2-3.3,0.2-4.8
				c0-15.4-15.3-23.3-28.3-28.4c-17.9-7.2-37-14.5-37-38c0-11.7,11.8-35.2,38.7-35.2c15.3,0,24.1,3.1,33.1,12.8
				c3.6,3.9,2.7,10.1-1.9,12.8l-0.2,0.1c-3.4,2-7.7,1.3-10.3-1.6c-6.3-6.8-13.1-7.8-17.9-7.8c-14.4,0-24.3,9.8-24.3,19.6
				c0,6.3,4.5,13.1,13.7,17c9.1,4.4,42.3,15.9,48.6,31.5C293.4,180.4,292.5,188.2,292.5,188.2z"/>
		</g>
	</g>
	<g>
		<g>
			<linearGradient id="SVGID_1_" gradientUnits="userSpaceOnUse" x1="260.3275" y1="2.5776" x2="259.6673" y2="67.2473">
				<stop  offset="0" style="stop-color:#F5833C"/>
				<stop  offset="1" style="stop-color:#F3716D"/>
			</linearGradient>
			<path class="st1" d="M289.4,39.7L263,66.2c-3.9,3.9-10.3,3.9-14.2,0l-14.3-14.3c-0.4-0.4-0.9-0.9-1.2-1.5
				c-8.5-12.6-7.2-29.8,3.9-40.9c12.6-12.6,33.1-12.6,45.7,0c6.4,6.4,9.6,14.9,9.5,23.3C292.3,35.4,291.2,37.9,289.4,39.7z"/>
		</g>
	</g>
</g>
<g>
	<g>
		<g>
			<linearGradient id="SVGID_2_" gradientUnits="userSpaceOnUse" x1="159.8697" y1="261.7014" x2="159.593" y2="289.6318">
				<stop  offset="0" style="stop-color:#F5833C"/>
				<stop  offset="0.4719" style="stop-color:#F47B56"/>
				<stop  offset="1" style="stop-color:#F3716D"/>
			</linearGradient>
			<path class="st2" d="M173.6,267.4l0,19.6c0,2-1.6,3.6-3.6,3.6l-11.1,0c-0.2,0-0.5,0-0.7-0.1c-7.2-1.3-12.6-7.6-12.6-15.2
				c0-8.5,6.9-15.5,15.5-15.5c4.6,0,8.7,2,11.6,5.2C173.3,265.7,173.6,266.5,173.6,267.4z"/>
		</g>
	</g>
	<g>
		<path class="st0" d="M16.9,247.5c0.8-0.1,1.5,0.1,2.1,0.6c0.6,0.5,0.9,1.2,0.9,2c0,0.7-0.2,1.3-0.6,1.7c-0.4,0.5-1,0.8-1.6,0.9
			c-0.8,0.1-1.5,0.3-2.1,0.5c-1.2,0.6-2.1,1.2-2.7,2c-0.7,0.8-1.2,1.8-1.5,2.9c-0.2,0.6-0.3,1-0.4,1.4c-0.1,0.4-0.1,0.9-0.1,1.5h4
			c0.6,0,1.2,0.2,1.6,0.7c0.5,0.5,0.7,1,0.7,1.6v0.1c0,0.6-0.2,1.2-0.7,1.6c-0.5,0.5-1,0.7-1.6,0.7h-4v21c0,0.7-0.3,1.4-0.8,1.9
			c-0.5,0.5-1.2,0.8-1.9,0.8c-0.8,0-1.4-0.3-1.9-0.8c-0.5-0.5-0.8-1.1-0.8-1.9v-21H2.3c-0.7,0-1.2-0.2-1.7-0.7
			c-0.4-0.5-0.7-1-0.7-1.6c0-0.7,0.2-1.2,0.7-1.7c0.5-0.5,1-0.7,1.7-0.7h1.7c0.4,0,0.8-0.1,1.1-0.4c0.3-0.3,0.5-0.7,0.6-1.1
			c0.1-0.6,0.2-1.2,0.3-1.8c0.1-0.6,0.3-1.2,0.5-1.7c0.6-1.7,1.5-3.2,2.7-4.5c1.1-1.3,2.6-2.3,4.4-3.1c0.5-0.2,1-0.4,1.5-0.6
			C15.7,247.7,16.3,247.6,16.9,247.5z"/>
		<path class="st0" d="M38.2,260.5c2,0,3.9,0.4,5.7,1.2c1.8,0.7,3.4,1.8,4.7,3.2c1.4,1.3,2.4,2.9,3.2,4.7c0.8,1.8,1.2,3.7,1.2,5.7
			c0,2-0.4,3.9-1.2,5.7c-0.7,1.8-1.8,3.3-3.2,4.7c-1.3,1.4-2.9,2.4-4.7,3.2c-1.7,0.7-3.6,1.1-5.7,1.1c-2.1,0-4-0.4-5.7-1.1
			c-1.8-0.7-3.3-1.8-4.7-3.2c-0.7-0.7-1.3-1.4-1.8-2.2c-0.5-0.8-1-1.6-1.4-2.5c-0.8-1.8-1.2-3.7-1.2-5.7c0-2,0.4-3.9,1.2-5.7
			c0.7-1.8,1.8-3.3,3.1-4.7c1.4-1.4,3-2.4,4.7-3.2C34.3,260.9,36.2,260.5,38.2,260.5z M38.2,284.8c1.3,0,2.5-0.2,3.7-0.7
			c1.1-0.5,2.1-1.2,3.1-2.1c0.4-0.4,0.8-0.9,1.2-1.4c0.3-0.5,0.6-1.1,0.9-1.7c0.3-0.6,0.5-1.1,0.6-1.8c0.1-0.6,0.2-1.3,0.2-1.9
			c0-1.3-0.3-2.6-0.8-3.7c-0.2-0.6-0.5-1.1-0.9-1.7c-0.3-0.5-0.7-1-1.2-1.4c-0.4-0.4-0.9-0.8-1.4-1.2c-0.5-0.3-1.1-0.6-1.7-0.9
			c-1.1-0.5-2.4-0.8-3.7-0.8c-0.7,0-1.3,0.1-1.9,0.2c-0.6,0.1-1.2,0.3-1.8,0.6c-0.6,0.2-1.1,0.5-1.7,0.9c-0.5,0.3-1,0.7-1.4,1.2
			c-0.9,0.9-1.6,2-2.1,3.1c-0.5,1.2-0.7,2.4-0.7,3.7c0,1.4,0.2,2.6,0.7,3.7c0.5,1.1,1.2,2.1,2.1,3.1c0.9,0.9,2,1.6,3.1,2.1
			C35.6,284.6,36.8,284.8,38.2,284.8z"/>
		<path class="st0" d="M80.9,261.2c0.5,0.5,0.8,1.1,0.8,1.8v0.3c0,0.7-0.3,1.3-0.8,1.8c-0.5,0.5-1.1,0.8-1.8,0.8H79
			c-1.2,0-2.4,0.2-3.6,0.6c-1.3,0.5-2.3,1.1-3.2,1.8c-1,0.8-1.9,1.7-2.5,2.7c-0.7,1.1-1.1,2.2-1.2,3.3v12.2c0,0.7-0.3,1.4-0.8,1.9
			c-0.5,0.5-1.2,0.8-1.9,0.8s-1.4-0.3-1.9-0.8c-0.5-0.5-0.8-1.2-0.8-1.9v-22.9c0-0.8,0.3-1.4,0.8-1.9c0.5-0.6,1.2-0.8,1.9-0.8
			c0.8,0,1.5,0.3,1.9,0.8c0.1,0.1,0.2,0.1,0.2,0.2c0.1,0.1,0.1,0.1,0.2,0.2c0.2,0.1,0.3,0.3,0.5,0.4c0.2,0.2,0.3,0.3,0.5,0.3h0.3
			c0.2,0,0.5-0.1,0.8-0.2c0.2-0.1,0.5-0.3,0.9-0.4c0.3-0.2,0.7-0.3,1-0.5c0.4-0.2,0.7-0.3,1-0.4c0.3-0.1,0.6-0.2,0.9-0.3
			c0.9-0.2,1.8-0.4,2.6-0.5c0.8-0.1,1.6-0.1,2.4-0.1H79C79.7,260.5,80.4,260.7,80.9,261.2z"/>
		<path class="st0" d="M123.1,260.5c2.1,0,3.9,0.4,5.4,1.1c1.6,0.7,2.9,1.8,4.1,3.1c1.1,1.3,1.9,2.9,2.5,4.7
			c0.6,1.8,0.9,3.7,0.9,5.8v11.6c0,0.7-0.3,1.3-0.8,1.8c-0.5,0.5-1.1,0.8-1.8,0.8s-1.3-0.3-1.8-0.8c-0.5-0.5-0.8-1.1-0.8-1.8v-11.6
			c0-0.7,0-1.3-0.1-2c-0.1-0.6-0.2-1.2-0.4-1.8c-0.3-1.2-0.8-2.2-1.4-3c-0.6-0.8-1.4-1.5-2.4-2.1c-1-0.5-2.2-0.8-3.4-0.8
			c-0.7,0-1.3,0.1-1.9,0.2c-0.6,0.1-1.1,0.3-1.6,0.6c-0.5,0.3-0.9,0.6-1.3,0.9c-0.4,0.3-0.8,0.7-1.1,1.2c-0.6,0.9-1,1.9-1.4,3.1
			c-0.3,1.3-0.5,2.5-0.5,3.8v11.5c0,0.7-0.2,1.3-0.7,1.8c-0.5,0.5-1.1,0.8-1.9,0.8c-0.7,0-1.3-0.3-1.8-0.8c-0.5-0.5-0.7-1.1-0.7-1.8
			v-11.5c0-1.3-0.2-2.5-0.5-3.8c-0.4-1.2-0.9-2.2-1.4-3.1c-0.6-0.9-1.4-1.6-2.4-2.1c-0.5-0.2-1-0.4-1.6-0.6
			c-0.6-0.1-1.2-0.2-1.8-0.2c-0.7,0-1.3,0.1-1.9,0.2c-0.6,0.1-1.1,0.3-1.6,0.6c-0.5,0.3-0.9,0.6-1.3,0.9c-0.4,0.3-0.7,0.7-1.1,1.2
			c-0.6,0.9-1.1,1.9-1.4,3.1c-0.2,0.6-0.3,1.2-0.4,1.8c-0.1,0.6-0.1,1.3-0.1,1.9h-0.1v11.5c0,0.7-0.3,1.3-0.8,1.8
			c-0.5,0.5-1.1,0.8-1.8,0.8h-0.3c-0.7,0-1.3-0.3-1.8-0.8c-0.5-0.5-0.8-1.1-0.8-1.8v-13.1c0-1.8,0.3-3.5,1-5.1
			c0.7-1.6,1.6-3,2.8-4.2s2.6-2.1,4.2-2.8c1.6-0.7,3.3-1,5.2-1c2.3,0,4.4,0.5,6.1,1.4c0.7,0.4,1.3,0.8,1.9,1.3
			c0.7,0.6,1.5,0.9,2.4,0.9c0.9,0,1.7-0.3,2.4-0.9c0.6-0.5,1.2-0.9,1.9-1.3C118.7,261,120.7,260.5,123.1,260.5z"/>
		<path class="st0" d="M202.5,287.3c0,0.8-0.3,1.5-0.9,2c-0.6,0.6-1.3,0.8-2.1,0.7c-0.6-0.1-1.2-0.3-1.7-0.4
			c-0.6-0.2-1.1-0.3-1.6-0.5c-1.8-0.7-3.3-1.7-4.5-3.1c-1.2-1.3-2.1-2.8-2.7-4.6c-0.6-1.8-0.9-3.7-0.9-5.7v-9.3h-3.4
			c-0.7,0-1.4-0.3-1.9-0.8c-0.5-0.5-0.8-1.1-0.8-1.9c0-0.8,0.3-1.4,0.8-1.9c0.5-0.5,1.1-0.8,1.9-0.8h0.8c0.7,0,1.4-0.3,1.9-0.8
			c0.5-0.5,0.8-1.1,0.8-1.9v-3.2c0-0.7,0.3-1.4,0.8-1.9c0.5-0.5,1.2-0.8,1.9-0.8c0.7,0,1.4,0.3,1.9,0.8c0.5,0.5,0.8,1.2,0.8,1.9v5.8
			h8.5c0.7,0,1.4,0.3,1.9,0.8c0.5,0.5,0.8,1.2,0.8,1.9c0,0.7-0.3,1.4-0.8,1.9s-1.1,0.8-1.9,0.8h-8.5v9.3c0,1.2,0.2,2.4,0.5,3.5
			c0.3,1.1,0.8,2.1,1.5,2.9c0.7,0.8,1.7,1.5,2.8,1.9c0.5,0.3,1.2,0.5,2.1,0.6c0.7,0.1,1.2,0.4,1.6,0.9
			C202.3,286.1,202.5,286.7,202.5,287.3z"/>
		<path class="st0" d="M218,253.2c0,0.9-0.3,1.6-0.9,2.2c-0.6,0.6-1.3,0.9-2.1,0.9c-0.9,0-1.6-0.3-2.2-0.9c-0.6-0.6-0.9-1.3-0.9-2.2
			c0-0.8,0.3-1.5,0.9-2.1c0.6-0.6,1.3-0.9,2.2-0.9c0.8,0,1.5,0.3,2.1,0.9C217.7,251.7,218,252.4,218,253.2z M214.9,261
			c-0.7,0-1.4,0.3-1.9,0.8c-0.5,0.5-0.8,1.2-0.8,2v22.8c0,0.8,0.3,1.4,0.8,2c0.5,0.5,1.2,0.8,1.9,0.8c0.8,0,1.4-0.3,2-0.8
			c0.5-0.5,0.8-1.2,0.8-2v-22.8c0-0.8-0.3-1.4-0.8-2C216.4,261.3,215.7,261,214.9,261z"/>
		<path class="st0" d="M241.9,260.5c2,0,3.9,0.4,5.7,1.2c1.8,0.7,3.4,1.8,4.7,3.2c1.4,1.3,2.4,2.9,3.2,4.7c0.8,1.8,1.2,3.7,1.2,5.7
			c0,2-0.4,3.9-1.2,5.7c-0.7,1.8-1.8,3.3-3.2,4.7c-1.3,1.4-2.9,2.4-4.7,3.2c-1.7,0.7-3.6,1.1-5.7,1.1c-2.1,0-4-0.4-5.7-1.1
			c-1.8-0.7-3.3-1.8-4.7-3.2c-0.7-0.7-1.3-1.4-1.8-2.2c-0.5-0.8-1-1.6-1.4-2.5c-0.8-1.8-1.2-3.7-1.2-5.7c0-2,0.4-3.9,1.2-5.7
			c0.7-1.8,1.8-3.3,3.1-4.7c1.4-1.4,3-2.4,4.7-3.2C238,260.9,239.9,260.5,241.9,260.5z M241.9,284.8c1.3,0,2.5-0.2,3.7-0.7
			c1.1-0.5,2.1-1.2,3.1-2.1c0.4-0.4,0.8-0.9,1.2-1.4c0.3-0.5,0.6-1.1,0.9-1.7c0.3-0.6,0.5-1.1,0.6-1.8c0.1-0.6,0.2-1.3,0.2-1.9
			c0-1.3-0.3-2.6-0.8-3.7c-0.2-0.6-0.5-1.1-0.9-1.7c-0.3-0.5-0.7-1-1.2-1.4c-0.4-0.4-0.9-0.8-1.4-1.2c-0.5-0.3-1.1-0.6-1.7-0.9
			c-1.1-0.5-2.4-0.8-3.7-0.8c-0.7,0-1.3,0.1-2,0.2c-0.6,0.1-1.2,0.3-1.8,0.6c-0.6,0.2-1.1,0.5-1.7,0.9c-0.5,0.3-1,0.7-1.4,1.2
			c-0.9,0.9-1.6,2-2.1,3.1c-0.5,1.2-0.7,2.4-0.7,3.7c0,1.4,0.2,2.6,0.7,3.7c0.5,1.1,1.2,2.1,2.1,3.1c0.9,0.9,2,1.6,3.1,2.1
			C239.3,284.6,240.5,284.8,241.9,284.8z"/>
		<path class="st0" d="M279.4,260.5c1.9,0,3.7,0.4,5.4,1.1c1.6,0.8,3,1.9,4,3.2c1.1,1.2,1.9,2.8,2.6,4.7c0.6,1.8,0.9,3.7,0.9,5.7
			v11.7c0,0.7-0.3,1.3-0.8,1.8c-0.5,0.5-1.1,0.8-1.8,0.8c-0.7,0-1.3-0.3-1.8-0.8c-0.5-0.5-0.8-1.1-0.8-1.8v-11.6
			c0-0.7,0-1.3-0.1-1.9c-0.1-0.6-0.2-1.2-0.4-1.8c-0.3-1.1-0.7-2.2-1.4-3.1c-0.6-0.9-1.4-1.6-2.4-2.1c-1-0.5-2.1-0.8-3.5-0.8
			c-1.4,0-2.5,0.3-3.4,0.8c-1,0.5-1.8,1.2-2.4,2.1c-0.7,0.9-1.1,1.9-1.4,3.1c-0.3,1.3-0.5,2.5-0.5,3.7h-0.1v11.6
			c0,0.7-0.3,1.3-0.8,1.8c-0.5,0.5-1.1,0.8-1.8,0.8h-0.3c-0.7,0-1.3-0.3-1.8-0.8c-0.5-0.5-0.8-1.1-0.8-1.8v-13.1
			c0-1.8,0.3-3.5,1-5.1c0.7-1.6,1.6-3,2.8-4.3c1.2-1.2,2.6-2.2,4.2-2.9C275.8,260.8,277.6,260.5,279.4,260.5z"/>
	</g>
</g>
</svg>
